<?xml version="1.0" encoding="UTF-8"?>
<svg xmlns="http://www.w3.org/2000/svg" version="1.1" viewBox="0 0 792 612">
  <defs>
    <style>
      .cls-1 {
        fill: #8cac3c;
      }
    </style>
  </defs>
  <!-- Generator: Adobe Illustrator 28.7.1, SVG Export Plug-In . SVG Version: 1.2.0 Build 142)  -->
  <g>
    <g id="Layer_1">
      <g>
        <g>
          <path d="M598.6,336.2c-22.3,0-44.6,0-66.9,0-4.6,0-4.6,0-3.5-4.5,8.9-35.4,17.8-70.7,26.7-106.1,1.4-5.7,1.4-5.7,7.3-5.7,43.8,0,87.6,0,131.3,0,5.2,0,5.2,0,3.8,5.1-2,7.5-4.1,15-5.8,22.6-.8,3.4-2.2,4.5-5.7,4.5-29.4-.1-58.8,0-88.2,0q-5.6,0-6.9,5.4c-.1.5-.2,1.1-.4,1.6-1.3,2.9-.1,3.6,2.8,3.6,25.9,0,51.8,0,77.7,0,4.8,0,4.9,0,3.7,4.6-1.8,7.1-3.8,14.2-5.5,21.3-.7,2.9-2,3.7-4.9,3.7-26.2-.1-52.5,0-78.7-.1-3,0-4.6.7-5.1,3.9-.4,2.7-1.2,5.3-1.9,7.9-.4,1.5.1,2.1,1.7,2.1.8,0,1.6,0,2.4,0,30.4,0,60.9,0,91.3,0,4.2,0,4.2,0,3.2,4.1-1.9,7.2-4,14.4-5.6,21.6-.8,3.7-2.7,4.5-6.1,4.5-22.2-.1-44.3,0-66.5,0Z"/>
          <path d="M286.5,339c-16-.7-30.5-1.5-44.3-7.2-17.8-7.5-27.3-23.5-26.1-42.8,1.3-20.8,9.6-37.9,25.5-51.2,10.3-8.6,22.5-13.5,35.5-16,21.4-4.2,42.9-4.2,64.2.9,8.1,1.9,15.6,5.5,21.9,11.1,8.5,7.6,12.5,17.4,13,28.5,1.6,33.2-19,61.8-50.9,71.3-6,1.8-12,3.3-18.2,4-7.3.8-14.6,1.1-20.6,1.5ZM290.5,307.3c3.6.2,7.3-.2,11-.7,15.2-2,27-12.4,30.5-27.1,3.5-14.6-3.3-25.1-18.1-28.2-10.1-2.1-20-1.5-29.7,1.6-11.7,3.7-19.8,11.4-23.5,23.4-4.5,14.8,1.9,26.1,16.9,29.8,4.2,1,8.5,1.4,12.9,1.1Z"/>
          <path d="M138.4,262.8c8.3,0,16.5,0,24.8,0,2.9,0,4.4-.7,5.1-3.9,2.7-11.9,5.9-23.7,8.7-35.5.6-2.5,1.5-3.7,4.4-3.8,12-.5,24-.1,35.9-.2,2.8,0,2.8,1.3,2.3,3.5-3.6,14.2-7.1,28.5-10.6,42.7-5.6,22.2-11.2,44.4-16.7,66.7-.7,2.8-1.9,3.9-4.8,3.8-11.6-.1-23.3,0-34.9,0-3.8,0-4-.2-3.1-3.8,2.9-11.6,5.8-23.2,8.8-34.8,1.2-4.6,1.2-4.6-3.6-4.6-16.6,0-33.2,0-49.9,0-3,0-4.1,1-4.8,3.8-2.9,12-6,23.9-8.9,35.8-.6,2.6-1.8,3.8-4.6,3.7-11.5-.1-23.1-.1-34.6,0-3.2,0-3.5-1.2-2.8-3.9,7.4-29.1,14.7-58.2,22-87.3,1.8-7.3,3.8-14.6,5.5-22,.6-2.5,1.8-3.6,4.4-3.6,11.5,0,23.1,0,34.6,0,4,0,4.1.4,3.1,4.5-3,11.6-6,23.2-8.9,34.8-1,4-.9,4.1,3.4,4.1,8.5,0,17,0,25.4,0Z"/>
          <path d="M443.9,336.1c-22.3,0-44.5,0-66.8,0-4.6,0-4.6,0-3.4-4.5,9-35.9,18-71.8,26.8-107.8.7-3,1.9-4.3,5.1-4.3,11.5,0,23.1-.1,34.6-.2,3.4,0,3.8.6,3,4.2-6.6,26.2-13.2,52.3-19.8,78.5-1,3.9-1,3.9,3.1,3.9,30.6,0,61.3,0,91.9,0,4.5,0,4.5,0,3.4,4.5-1.7,7-3.5,14-5.1,21.1-.7,3.5-2.2,4.7-6,4.7-22.3-.2-44.5,0-66.8,0h0Z"/>
          <path d="M286.9,427.9c-8.3,0-13.7-5.5-13.6-13.5.1-8.1,6.7-14.2,15.4-14.1,8.5,0,14.3,5.5,14.2,13.4,0,8.2-6.9,14.3-16,14.3Z"/>
        </g>
        <path class="cls-1" d="M667.4,118.2c-.4-12.4,0-22.4.3-32.3,0-3.6.4-3.8,3.7-2.3,23.4,10.8,46.7,21.7,70.1,32.5.8.4,2,.5,2,1.6,0,1.2-1.3,1.4-2.2,1.7-15.8,6.4-31.6,12.8-47.4,19.3-7.4,3-14.8,6.1-22.2,9.2-3.4,1.4-4.2.9-4.2-2.8,0-9.8,0-19.6,0-27Z"/>
        <path class="cls-1" d="M650,144.1c0-21,0-42.1,0-63.1,0-4.3,1.1-5.5,4.9-5.6,4.8,0,6.9,1.7,6.9,5.8,0,42.4,0,84.8,0,127.2,0,3.2-1.2,4.6-4.3,4.7-1.4,0-2.7,0-4.1,0-2.4-.1-3.6-1.3-3.6-3.9.1-5.5,0-11.1,0-16.6,0-16.2,0-32.3,0-48.5h0Z"/>
        <path class="cls-1" d="M606.3,473.3c-22.4,0-44.8,0-67.2,0-4.7,0-4.8-.2-3.7-4.5,8.6-36,17.3-72.1,25.9-108.1,1.3-5.4,1.3-5.5,7-5.5,14.8,0,29.6,0,44.5,0,25.9,0,51.8,0,77.7,0,3.4,0,6.8.3,10.2.3,1.9,0,2.5.7,2.1,2.4-2.1,8.8-4.2,17.6-6.2,26.4-.4,1.6-1.4,2.2-3,2.2-1,0-2,0-3.1,0-29.6,0-59.3,0-88.9,0-3.3,0-5,.9-5.4,4.3-.2,2-.7,4-1.4,5.9-1.1,3.2.1,3.8,3.1,3.8,26,0,52,0,78,0,5.3,0,5.5.2,4.3,5.4-1.5,6.4-3.2,12.7-4.5,19.1-.6,3-2,3.8-4.9,3.8-26.2,0-52.5,0-78.7-.1-3.5,0-4.9,1.1-5.6,4.5-1.7,8.2-1.9,8.2,6.4,8.2,28.8,0,57.7,0,86.5,0,6.3,0,6.3,0,5,6-1.6,7.2-3.4,14.3-5,21.5-.7,3.4-2.3,4.7-6,4.7-22.4-.2-44.8,0-67.2,0Z"/>
        <path class="cls-1" d="M490.2,416c4.6-18.9,8.9-36.9,13.3-54.9,1.4-5.6,1.4-5.9,7.2-5.9,11.1-.1,22.2-.1,33.2,0,3.7,0,4.2.7,3.3,4.3-6.4,27.4-12.9,54.8-19.3,82.1-2.2,9.5-4.4,18.9-6.5,28.4-.6,2.6-1.9,3.4-4.5,3.4-10.1-.1-20.1-.1-30.2,0-2.6,0-4.5-.9-6.2-2.8-10-11.4-19.5-23.1-29-34.9-8.1-10-16.1-20.2-24.1-30.2-.2-.2-.5-.4-1.1-.8-1.3,6.3-2.6,12.3-3.9,18.3-3.4,15.8-6.9,31.6-10.2,47.3-.5,2.2-1.4,3.1-3.6,3.1-12.1,0-24.2,0-36.3,0-4.1,0-2.9-2.5-2.4-4.6,3.3-14.9,6.6-29.8,10-44.6,4.9-21.6,9.9-43.1,14.8-64.7.6-2.9,2-3.9,4.8-3.9,13.2-.2,26.4-.1,39.6,0,3.2,0,4.6,2,6.2,4,13.3,16.7,26.6,33.5,39.8,50.2,1.5,1.9,3.1,3.8,5.1,6.3Z"/>
        <path class="cls-1" d="M301.9,352.8c14.8.4,29.6,1.2,43.5,7.3,20.4,9,28.4,24.4,27,46.1-1,16-7.2,29.7-18.2,41.3-10.2,10.8-22.8,17.8-37,21.7-24.1,6.6-48.4,7.1-72.7,1.1-11.3-2.8-21.4-8.2-28.7-17.6-10.4-13.5-11.5-28.9-7.2-44.8,5.7-21.2,19.7-35.4,39.2-44.6,12.9-6.1,26.6-9.1,40.9-10,4.4-.3,8.8-.6,13.2-.6ZM295.6,387.1c-4-.1-7.9,0-11.8.7-11,1.7-20.9,5.7-28.3,14.4-4.2,4.9-6.7,10.5-6,17.1.9,8.5,6.2,13.5,13.9,16.4,8.1,3,16.5,3.8,25,3.3,10.9-.7,21.5-2.8,30.4-9.9,7.1-5.7,10.4-13.1,9.4-22-1-8.6-6.5-13.9-14.3-17-5.9-2.4-12-3.3-18.3-2.9Z"/>
        <path class="cls-1" d="M271.5,516.9c0-4.9,0-9.7,0-14.6,0-2.5.9-3.7,3.6-3.6,6.6.1,13.1,0,19.7.1,8.3.3,12.9,3.7,13.8,10.3.7,4.9-.9,9.3-5.2,12.1-2.2,1.4-2.1,2.4-.5,4.1,2.2,2.5,4.1,5.1,6.1,7.7.5.6,1.2,1.2.8,2.1-.4.8-1.4.6-2.1.6-2.3,0-4.5,0-6.8,0-1.8,0-3-.6-4-2-1.9-2.5-4-4.9-5.9-7.5-2.1-2.9-5-2.1-7.7-1.9-1.3,0-1.3,1.4-1.3,2.4,0,2.1,0,4.3,0,6.4,0,1.7-.8,2.5-2.5,2.5-.1,0-.2,0-.3,0q-7.6.6-7.6-7c0-2,0-4.1,0-6.1,0-1.9,0-3.8,0-5.8h0ZM289.2,507.2c-1.6,0-2.8.1-4,0-2.7-.3-3.7,1-3.4,3.5.1,1,0,2,0,3,0,1.2.7,1.9,1.9,1.9,3.5,0,7,0,10.4-.2,2.1-.2,3.3-1.8,3.5-4,.2-2.2-1.3-3.2-3.1-3.9-1.8-.7-3.8-.3-5.3-.4Z"/>
        <path class="cls-1" d="M495.9,519.8c0-5.7,0-11.2,0-16.7,0-2.3-.3-4.5,3.3-4.5,5.5,0,6.1,0,6.2,4.1.2,9.9.1,19.9.1,29.8,0,2.3-1.1,3.1-3.3,3.2-3.9.2-6.8-.6-9.3-4-5.1-6.6-10.8-12.7-16.3-19.2-1,1-.6,2.2-.6,3.2,0,5.4,0,10.9,0,16.3,0,2.6-.8,3.6-3.5,3.6-6.5,0-6.5.1-6.5-6.4,0-8.9,0-17.9,0-26.8,0-2.9.9-3.8,3.9-4,4.9-.3,8.6.8,11.6,5.1,3.3,4.7,7.3,8.9,11.1,13.2.8,1,1.5,2.3,3.4,2.8Z"/>
        <path class="cls-1" d="M229.8,514.5q9.3,0,9.3,9.2c0,.3,0,.7,0,1,0,7.9-.7,8.9-8.4,10.8-5.6,1.4-11.2,1.5-16.8.4-7.9-1.6-13.3-6.1-14.8-14.3-1.5-8.2,1-15.2,8.1-19.7,8.2-5.2,17.1-5.2,25.9-1.1,1.4.7,3.7,1.4,2.6,3.9-1.3,3-4.7,4.7-6.8,3.7-4.2-2-8.5-2.1-12.9-.7-3.9,1.2-6.6,4.9-6.7,9.3,0,4.4,1,8.3,5.4,10.5,3.6,1.8,7.4,1.5,11.3.7,2.2-.5,2.9-1.9,2.6-4-.3-2.2-2-1.8-3.4-1.8-5.1-.2-5.8-.9-5.2-5.2.2-1.6,1-2.5,2.6-2.5,2.4,0,4.7,0,7.1,0Z"/>
        <path class="cls-1" d="M338.7,516.9c0-4.7,0-9.5,0-14.2,0-2.8.9-4,4-4,8.6.2,17.2.2,25.8,0,3.6,0,3.7,1.8,3.7,4.4,0,2.6-.3,4.4-3.6,4.2-4.7-.2-9.5,0-14.2,0-2.3,0-4.8-.6-4.7,3.3,0,4.1,2.7,3.1,4.9,3.1,4,0,7.9.2,11.9,0,3.1-.1,3.4,1.7,3.5,4.1,0,2.4-.4,3.9-3.3,3.8-4.6-.2-9.3,0-13.9,0-2.2,0-3,.9-3,3,0,2,.2,3.5,2.9,3.5,5.5,0,11.1.1,16.6,0,3,0,3.6,1.4,3.6,4,0,2.7-.8,3.9-3.7,3.8-8.9-.1-17.9-.1-26.8,0-2.8,0-3.6-1.1-3.5-3.6,0-5.1,0-10.2,0-15.3h0Z"/>
        <path class="cls-1" d="M419.5,535.7c-4.4,0-8.8-.1-13.2,0-2.6,0-3.8-.8-3.7-3.5.2-10.3.3-20.6.4-30.9,0-2.1,1-2.8,2.9-2.8,9.2,0,18.3,0,27.5,0,3.7,0,3,2.6,3.1,4.7.2,2.4-.4,3.9-3.3,3.8-5.5-.1-11.1,0-16.6,0-2.4,0-3.2.9-3.2,3.2,0,2.2.6,3.4,3.1,3.3,4.3-.1,8.6.1,12.9,0,3-.1,4,.9,4,3.9,0,2.8-.7,4.2-3.8,4-4.1-.2-8.1,0-12.2,0-2.3,0-3.9.1-3.9,3.1,0,3.2,1.6,3.4,4.1,3.4,5.1,0,10.2,0,15.3,0,3.1,0,3.8,1.4,3.9,4.1,0,2.9-1,3.8-3.8,3.7-4.4-.2-8.8,0-13.2,0Z"/>
        <path class="cls-1" d="M552.5,498.1c4.3-.3,8.2.7,12,2.3,2.6,1.1,2.2,2.8,1.2,4.6-1,1.8-.9,4.8-4.5,3.3-3.2-1.4-6.7-2-10.3-1.7-1.6.2-3.4.3-3.5,2.4-.1,1.9,1.5,2.3,2.9,2.7,3.5.9,7,1.6,10.5,2.6,6.5,2,8.9,4.8,8.8,10.3,0,5.5-2.9,9.2-9,10.8-7.7,2-15.2,1.1-22.5-2-1.5-.6-3.3-1.5-1.8-3.5,1.3-1.8,1-5.8,5.1-4.2,3.8,1.5,7.6,3,11.8,2.7,1.1,0,2.2-.3,3.3-.5,1.3-.3,2.3-1,2.4-2.5,0-1.6-1.1-2.2-2.3-2.5-2.9-.8-5.9-1.5-8.9-2.2-2.5-.5-4.8-1.4-6.9-2.7-6.2-3.9-6.6-12.1-.7-16.5,3.7-2.8,7.8-3.9,12.3-3.5Z"/>
        <path class="cls-1" d="M653.4,520.1c-21.4,0-42.7,0-64.1,0-1.4,0-3.9,1.1-3.9-1.6,0-2.4,2.1-2.8,4.2-2.8,43.3,0,86.6,0,129.8,0,1.2,0,3.1-.6,3.1,1.5,0,1.8-1.1,2.9-3,2.9-1.2,0-2.5,0-3.7,0-20.8,0-41.6,0-62.4,0h0Z"/>
        <path class="cls-1" d="M119.4,520.1c-19,0-38,0-57,0-1.2,0-3.3.8-3.4-1,0-1.8,1.4-3.3,3.6-3.4.9,0,1.8,0,2.7,0,37.1,0,74.2,0,111.2,0,.9,0,1.8,0,2.7,0,1.2,0,1.9.6,1.9,1.9,0,1.2-.4,2.3-1.8,2.4-1.3.1-2.7.1-4.1.1-18.7,0-37.3,0-56,0h0Z"/>
      </g>
    </g>
  </g>
</svg>